# xmcd CD database file
#
# Track frame offsets:
#	150
#	15420
#	34485
#	49027
#	62322
#	65952
#	86132
#	103805
#	124977
#	134852
#	150835
#	162750
#	173757
#	187907
#
# Disc length: 2775 seconds
#
# Revision: 2
# Processed by: cddbd v1.4PL0 Copyright (c) Steve Scherf et al.
# Submitted via: CDex 1.50
#
DISCID=bc0ad50e
DTITLE=Daniel Amos - Daniel Amos
DYEAR=1976
DGENRE=Christian Rock
TTITLE0=Jesus is Jehovah to Me
TTITLE1=The Bible
TTITLE2=Abidin'
TTITLE3=William
TTITLE4=Prelude - Servant's Prayer
TTITLE5=Don't Light Your Own Fire
TTITLE6=Losers and Winners
TTITLE7=Walking on the Water
TTITLE8=Ridin' Along
TTITLE9=Dusty Road
TTITLE10=Love in a Yielded Heart
TTITLE11=Skeptic's Song
TTITLE12=Happily Married Man
TTITLE13=Ain't Gonna Fight It
EXTD=YEAR: 1976
EXTT0=
EXTT1=
EXTT2=
EXTT3=
EXTT4=
EXTT5=
EXTT6=
EXTT7=
EXTT8=
EXTT9=
EXTT10=
EXTT11=
EXTT12=
EXTT13=
PLAYORDER=
